<?xml version="1.0" standalone="no"?><!DOCTYPE svg PUBLIC "-//W3C//DTD SVG 1.1//EN" "http://www.w3.org/Graphics/SVG/1.1/DTD/svg11.dtd"><svg t="1571990504772" class="icon" viewBox="0 0 1024 1024" version="1.1" xmlns="http://www.w3.org/2000/svg" p-id="2154" xmlns:xlink="http://www.w3.org/1999/xlink" width="64" height="64"><defs><style type="text/css"></style></defs><path d="M511.337921 959.013917c-168.444387 0-320.766584-93.244684-397.525806-243.352447-5.846148-11.474332-11.219529-23.23826-16.122189-35.256992-7.769964-19.026332 1.379417-40.739866 20.369933-48.474015 19.026332-7.806803 40.704051 1.343601 48.474015 20.369933 4.103458 10.058077 8.606005 19.934005 13.507642 29.557176 63.97915 125.053134 190.920284 202.793706 331.296405 202.793706 205.00814 0 371.818307-166.810167 371.818307-371.818307s-166.810167-378.060475-371.818307-378.060475c-192.481849 0-351.267249 140.106991-369.967146 328.395332l481.512638 0c20.552082 0 37.181831 16.286941 37.181831 36.839023s-16.629749 36.839023-37.181831 36.839023l-520.54563 0c-20.552082 0-37.181831-10.045797-37.181831-30.596855 0-246.039649 200.143343-442.889993 446.181969-442.889993s446.181969 201.788819 446.181969 447.828468S757.37757 959.013917 511.337921 959.013917z" p-id="2155"></path><path d="M474.15609 735.922932c-10.093892 0-20.188808-4.103458-27.522844-12.164041-13.798261-15.214517-12.672624-38.706557 2.505054-52.540633L623.391996 512.831948 449.1383 354.445638c-15.177678-13.834076-16.303314-37.32714-2.505054-52.541657 13.834076-15.177678 37.399795-16.23066 52.541657-2.505054l174.253696 158.38631c15.468296 14.124695 24.328082 34.168194 24.328082 55.04671 0 20.878516-8.859785 40.922015-24.291243 54.974056l-174.289512 158.458965C492.056785 732.727147 483.08853 735.922932 474.15609 735.922932z" p-id="2156"></path></svg>